<?xml version="1.0" encoding="UTF-8" standalone="no"?>
<svg
   xmlns:dc="http://purl.org/dc/elements/1.1/"
   xmlns:cc="http://creativecommons.org/ns#"
   xmlns:rdf="http://www.w3.org/1999/02/22-rdf-syntax-ns#"
   xmlns:svg="http://www.w3.org/2000/svg"
   xmlns="http://www.w3.org/2000/svg"
   xmlns:sodipodi="http://sodipodi.sourceforge.net/DTD/sodipodi-0.dtd"
   xmlns:inkscape="http://www.inkscape.org/namespaces/inkscape"
   aria-hidden="true"
   focusable="false"
   data-prefix="fas"
   data-icon="home"
   class="svg-inline--fa fa-home fa-w-18"
   role="img"
   viewBox="0 0 576 512"
   version="1.1"
   id="svg4"
   sodipodi:docname="home-solid.svg"
   inkscape:version="0.92.5 (2060ec1f9f, 2020-04-08)">
  <metadata
     id="metadata10">
    <rdf:RDF>
      <cc:Work
         rdf:about="">
        <dc:format>image/svg+xml</dc:format>
        <dc:type
           rdf:resource="http://purl.org/dc/dcmitype/StillImage" />
      </cc:Work>
    </rdf:RDF>
  </metadata>
  <defs
     id="defs8" />
  <sodipodi:namedview
     pagecolor="#ffffff"
     bordercolor="#666666"
     borderopacity="1"
     objecttolerance="10"
     gridtolerance="10"
     guidetolerance="10"
     inkscape:pageopacity="0"
     inkscape:pageshadow="2"
     inkscape:window-width="1366"
     inkscape:window-height="741"
     id="namedview6"
     showgrid="false"
     inkscape:zoom="0.4609375"
     inkscape:cx="288"
     inkscape:cy="256"
     inkscape:window-x="0"
     inkscape:window-y="0"
     inkscape:window-maximized="1"
     inkscape:current-layer="svg4" />
  <path
     d="m 282.53949,135.24305 -184.369998,151.85 v 163.89 a 16,16 0 0 0 15.999998,16 l 112.06,-0.29 a 16,16 0 0 0 15.92,-16 v -95.71 a 16,16 0 0 1 16,-16 h 64 a 16,16 0 0 1 16,16 v 95.64 a 16,16 0 0 0 16,16.05 l 112.02,0.31 a 16,16 0 0 0 16,-16 v -164 l -184.33,-151.74 a 12.19,12.19 0 0 0 -15.3,0 z m 291.23,103.21 -83.6,-68.91 V 31.033051 a 12,12 0 0 0 -12,-12 h -56 a 12,12 0 0 0 -12,12 v 72.609999 l -89.53,-73.659999 a 48,48 0 0 0 -61,0 L 6.5094915,238.45305 a 12,12 0 0 0 -1.6,16.9 l 25.5000005,31 a 12,12 0 0 0 16.91,1.63 L 282.53949,94.243051 a 12.19,12.19 0 0 1 15.3,0 l 235.23,193.739999 a 12,12 0 0 0 16.9,-1.6 l 25.5,-31 a 12,12 0 0 0 -1.7,-16.93 z"
     id="path2"
     inkscape:connector-curvature="0"
     style="fill:#008080" />
</svg>
